<?xml version="1.0" encoding="UTF-8" standalone="no"?>
<!-- Created with Inkscape (http://www.inkscape.org/) -->

<svg
   width="111.77226mm"
   height="132.03191mm"
   viewBox="0 0 111.77226 132.03191"
   version="1.1"
   id="svg641"
   xml:space="preserve"
   xmlns="http://www.w3.org/2000/svg"
   xmlns:svg="http://www.w3.org/2000/svg"><defs
     id="defs638" /><path
     d="m 54.331976,70.572219 c 19.6803,-0.232779 34.52908,-8.064602 40.78828,-26.289679 6.289054,-17.701252 4.68773,-34.063235 -12.81002,-40.8471221 -11.32523,-4.39610799 -15.052,-3.31889499 -59.392525,-3.31889499 -2.882327,0 -5.386065,2.12543599 -5.823207,4.92021999 L 0.03418386,113.31171 c -0.291046,2.12514 1.30999204,4.04679 3.52239704,4.04679 H 25.275639 c 0.582378,0 0.785881,-0.20321 0.873424,-0.72733 1.193459,-7.36626 5.240829,-33.423445 6.259488,-39.013295 1.689155,-9.083549 9.287915,-6.841293 21.923425,-7.045656 z"
     style="fill:#002d8a;stroke-width:0.287027"
     id="path776" /><path
     d="m 103.94232,35.723103 c -0.52411,-0.378589 -0.7279,-0.524398 -0.87342,0.378015 -0.58238,3.319469 -1.48479,6.550821 -2.56229,9.782747 -11.616564,33.13154 -43.816714,30.2495 -59.538334,30.2495 -1.77613,0 -2.940594,0.96097 -3.17366,2.73652 -6.579524,40.875825 -7.889803,49.406265 -7.889803,49.406265 -0.291332,2.06717 1.018947,3.75575 3.086116,3.75575 h 18.487417 c 2.50374,0 4.57091,-1.83439 5.06603,-4.33755 0.2035,-1.57262 -0.32003,1.77584 4.19232,-26.5813 1.33898,-6.404715 4.16304,-5.734795 8.53016,-5.734795 20.67141,0 36.800044,-8.38521 41.604014,-32.695265 1.89295,-10.132059 1.33985,-20.787942 -6.92855,-26.959887 z"
     style="fill:#019be1;stroke-width:0.287027"
     id="path778" /></svg>
